# xmcd CD database file
#
# Track frame offsets:
#	150
#	13565
#	29802
#	50115
#	74992
#	90986
#	113266
#	129731
#	140792
#	157261
#
# Disc length: 2307 seconds
#
# Revision: 2
# Processed by: cddbd v1.5.2PL0 Copyright (c) Steve Scherf et al.
# Submitted via: CDex 1.70beta2
#
DISCID=9609010a
DTITLE=Torsten Goods Quartett - A Jazzy Christmas
DYEAR=2005
DGENRE=Jazz
TTITLE0=Jingle Bells
TTITLE1=White Christmas
TTITLE2=Let It Snow
TTITLE3=Winter Wonderland
TTITLE4=Rudolph The Red-Nosed Reindeer
TTITLE5=Have Yourself A Merry Little Christmas
TTITLE6=Santa Claus Is Coming To Town
TTITLE7=Hey Santa Claus
TTITLE8=Merry Christmas Baby
TTITLE9=Silent Night
EXTD=YEAR: 2005
EXTT0=
EXTT1=
EXTT2=
EXTT3=
EXTT4=
EXTT5=
EXTT6=
EXTT7=
EXTT8=
EXTT9=
PLAYORDER=
